<svg id="mermaid-1784038983559" width="100%" xmlns="http://www.w3.org/2000/svg" xmlns:xlink="http://www.w3.org/1999/xlink" class="flowchart" style="max-width: 1415.203125px;" viewBox="0 0 1415.203125 799" role="graphics-document document" aria-roledescription="flowchart-v2"><style>#mermaid-1784038983559{font-family:"trebuchet ms",verdana,arial,sans-serif;font-size:16px;fill:#333;}@keyframes edge-animation-frame{from{stroke-dashoffset:0;}}@keyframes dash{to{stroke-dashoffset:0;}}#mermaid-1784038983559 .edge-animation-slow{stroke-dasharray:9,5!important;stroke-dashoffset:900;animation:dash 50s linear infinite;stroke-linecap:round;}#mermaid-1784038983559 .edge-animation-fast{stroke-dasharray:9,5!important;stroke-dashoffset:900;animation:dash 20s linear infinite;stroke-linecap:round;}#mermaid-1784038983559 .error-icon{fill:#552222;}#mermaid-1784038983559 .error-text{fill:#552222;stroke:#552222;}#mermaid-1784038983559 .edge-thickness-normal{stroke-width:1px;}#mermaid-1784038983559 .edge-thickness-thick{stroke-width:3.5px;}#mermaid-1784038983559 .edge-pattern-solid{stroke-dasharray:0;}#mermaid-1784038983559 .edge-thickness-invisible{stroke-width:0;fill:none;}#mermaid-1784038983559 .edge-pattern-dashed{stroke-dasharray:3;}#mermaid-1784038983559 .edge-pattern-dotted{stroke-dasharray:2;}#mermaid-1784038983559 .marker{fill:#333333;stroke:#333333;}#mermaid-1784038983559 .marker.cross{stroke:#333333;}#mermaid-1784038983559 svg{font-family:"trebuchet ms",verdana,arial,sans-serif;font-size:16px;}#mermaid-1784038983559 p{margin:0;}#mermaid-1784038983559 .label{font-family:"trebuchet ms",verdana,arial,sans-serif;color:#333;}#mermaid-1784038983559 .cluster-label text{fill:#333;}#mermaid-1784038983559 .cluster-label span{color:#333;}#mermaid-1784038983559 .cluster-label span p{background-color:transparent;}#mermaid-1784038983559 .label text,#mermaid-1784038983559 span{fill:#333;color:#333;}#mermaid-1784038983559 .node rect,#mermaid-1784038983559 .node circle,#mermaid-1784038983559 .node ellipse,#mermaid-1784038983559 .node polygon,#mermaid-1784038983559 .node path{fill:#ECECFF;stroke:#9370DB;stroke-width:1px;}#mermaid-1784038983559 .rough-node .label text,#mermaid-1784038983559 .node .label text,#mermaid-1784038983559 .image-shape .label,#mermaid-1784038983559 .icon-shape .label{text-anchor:middle;}#mermaid-1784038983559 .node .katex path{fill:#000;stroke:#000;stroke-width:1px;}#mermaid-1784038983559 .rough-node .label,#mermaid-1784038983559 .node .label,#mermaid-1784038983559 .image-shape .label,#mermaid-1784038983559 .icon-shape .label{text-align:center;}#mermaid-1784038983559 .node.clickable{cursor:pointer;}#mermaid-1784038983559 .root .anchor path{fill:#333333!important;stroke-width:0;stroke:#333333;}#mermaid-1784038983559 .arrowheadPath{fill:#333333;}#mermaid-1784038983559 .edgePath .path{stroke:#333333;stroke-width:2.0px;}#mermaid-1784038983559 .flowchart-link{stroke:#333333;fill:none;}#mermaid-1784038983559 .edgeLabel{background-color:rgba(232,232,232, 0.8);text-align:center;}#mermaid-1784038983559 .edgeLabel p{background-color:rgba(232,232,232, 0.8);}#mermaid-1784038983559 .edgeLabel rect{opacity:0.5;background-color:rgba(232,232,232, 0.8);fill:rgba(232,232,232, 0.8);}#mermaid-1784038983559 .labelBkg{background-color:rgba(232, 232, 232, 0.5);}#mermaid-1784038983559 .cluster rect{fill:#ffffde;stroke:#aaaa33;stroke-width:1px;}#mermaid-1784038983559 .cluster text{fill:#333;}#mermaid-1784038983559 .cluster span{color:#333;}#mermaid-1784038983559 div.mermaidTooltip{position:absolute;text-align:center;max-width:200px;padding:2px;font-family:"trebuchet ms",verdana,arial,sans-serif;font-size:12px;background:hsl(80, 100%, 96.2745098039%);border:1px solid #aaaa33;border-radius:2px;pointer-events:none;z-index:100;}#mermaid-1784038983559 .flowchartTitleText{text-anchor:middle;font-size:18px;fill:#333;}#mermaid-1784038983559 rect.text{fill:none;stroke-width:0;}#mermaid-1784038983559 .icon-shape,#mermaid-1784038983559 .image-shape{background-color:rgba(232,232,232, 0.8);text-align:center;}#mermaid-1784038983559 .icon-shape p,#mermaid-1784038983559 .image-shape p{background-color:rgba(232,232,232, 0.8);padding:2px;}#mermaid-1784038983559 .icon-shape .label rect,#mermaid-1784038983559 .image-shape .label rect{opacity:0.5;background-color:rgba(232,232,232, 0.8);fill:rgba(232,232,232, 0.8);}#mermaid-1784038983559 .label-icon{display:inline-block;height:1em;overflow:visible;vertical-align:-0.125em;}#mermaid-1784038983559 .node .label-icon path{fill:currentColor;stroke:revert;stroke-width:revert;}#mermaid-1784038983559 :root{--mermaid-font-family:"trebuchet ms",verdana,arial,sans-serif;}</style><g><marker id="mermaid-1784038983559_flowchart-v2-pointEnd" class="marker flowchart-v2" viewBox="0 0 10 10" refX="5" refY="5" markerUnits="userSpaceOnUse" markerWidth="8" markerHeight="8" orient="auto"><path d="M 0 0 L 10 5 L 0 10 z" class="arrowMarkerPath" style="stroke-width: 1; stroke-dasharray: 1, 0;"></path></marker><marker id="mermaid-1784038983559_flowchart-v2-pointStart" class="marker flowchart-v2" viewBox="0 0 10 10" refX="4.5" refY="5" markerUnits="userSpaceOnUse" markerWidth="8" markerHeight="8" orient="auto"><path d="M 0 5 L 10 10 L 10 0 z" class="arrowMarkerPath" style="stroke-width: 1; stroke-dasharray: 1, 0;"></path></marker><marker id="mermaid-1784038983559_flowchart-v2-circleEnd" class="marker flowchart-v2" viewBox="0 0 10 10" refX="11" refY="5" markerUnits="userSpaceOnUse" markerWidth="11" markerHeight="11" orient="auto"><circle cx="5" cy="5" r="5" class="arrowMarkerPath" style="stroke-width: 1; stroke-dasharray: 1, 0;"></circle></marker><marker id="mermaid-1784038983559_flowchart-v2-circleStart" class="marker flowchart-v2" viewBox="0 0 10 10" refX="-1" refY="5" markerUnits="userSpaceOnUse" markerWidth="11" markerHeight="11" orient="auto"><circle cx="5" cy="5" r="5" class="arrowMarkerPath" style="stroke-width: 1; stroke-dasharray: 1, 0;"></circle></marker><marker id="mermaid-1784038983559_flowchart-v2-crossEnd" class="marker cross flowchart-v2" viewBox="0 0 11 11" refX="12" refY="5.2" markerUnits="userSpaceOnUse" markerWidth="11" markerHeight="11" orient="auto"><path d="M 1,1 l 9,9 M 10,1 l -9,9" class="arrowMarkerPath" style="stroke-width: 2; stroke-dasharray: 1, 0;"></path></marker><marker id="mermaid-1784038983559_flowchart-v2-crossStart" class="marker cross flowchart-v2" viewBox="0 0 11 11" refX="-1" refY="5.2" markerUnits="userSpaceOnUse" markerWidth="11" markerHeight="11" orient="auto"><path d="M 1,1 l 9,9 M 10,1 l -9,9" class="arrowMarkerPath" style="stroke-width: 2; stroke-dasharray: 1, 0;"></path></marker><g class="root"><g class="clusters"></g><g class="edgePaths"></g><g class="edgeLabels"></g><g class="nodes"><g class="root" transform="translate(0, 0)"><g class="clusters"><g class="cluster " id="TARGET" data-look="classic"><rect style="" x="8" y="8" width="1399.203125" height="783"></rect><g class="cluster-label " transform="translate(628.015625, 8)"><foreignObject width="159.171875" height="44"><div xmlns="http://www.w3.org/1999/xhtml" style="display: table-cell; white-space: nowrap; line-height: 1.5;"><span class="nodeLabel "><p>Target (after this spec)</p></span></div></foreignObject></g></g></g><g class="edgePaths"><path d="M847.488,84.526L778.136,93.272C708.784,102.017,570.079,119.509,500.727,137.838C431.375,156.167,431.375,175.333,431.375,184.917L431.375,194.5" id="L_PR2_T0_0" class=" edge-thickness-normal edge-pattern-solid edge-thickness-normal edge-pattern-solid flowchart-link" style=";" data-edge="true" data-et="edge" data-id="L_PR2_T0_0" data-points="W3sieCI6ODQ3LjQ4ODI4MTI1LCJ5Ijo4NC41MjYyMzM1ODk2ODY4fSx7IngiOjQzMS4zNzUsInkiOjEzN30seyJ4Ijo0MzEuMzc1LCJ5IjoxOTguNX1d" marker-end="url(#mermaid-1784038983559_flowchart-v2-pointEnd)"></path><path d="M345.359,270.919L316.583,282.099C287.807,293.279,230.255,315.64,201.479,332.403C172.703,349.167,172.703,360.333,172.703,365.917L172.703,371.5" id="L_T0_T1_0" class=" edge-thickness-normal edge-pattern-solid edge-thickness-normal edge-pattern-solid flowchart-link" style=";" data-edge="true" data-et="edge" data-id="L_T0_T1_0" data-points="W3sieCI6MzQ1LjM1OTM3NSwieSI6MjcwLjkxOTA1NzY4NjQ5OTU3fSx7IngiOjE3Mi43MDMxMjUsInkiOjMzOH0seyJ4IjoxNzIuNzAzMTI1LCJ5IjozNzUuNX1d" marker-end="url(#mermaid-1784038983559_flowchart-v2-pointEnd)"></path><path d="M438.424,276.5L440.276,286.75C442.129,297,445.834,317.5,447.687,335.333C449.539,353.167,449.539,368.333,449.539,375.917L449.539,383.5" id="L_T0_T2_0" class=" edge-thickness-normal edge-pattern-solid edge-thickness-normal edge-pattern-solid flowchart-link" style=";" data-edge="true" data-et="edge" data-id="L_T0_T2_0" data-points="W3sieCI6NDM4LjQyMzc0MDY3MTY0MTgsInkiOjI3Ni41fSx7IngiOjQ0OS41MzkwNjI1LCJ5IjozMzh9LHsieCI6NDQ5LjUzOTA2MjUsInkiOjM4Ny41fV0=" marker-end="url(#mermaid-1784038983559_flowchart-v2-pointEnd)"></path><path d="M517.391,269.669L547.842,281.057C578.294,292.446,639.198,315.223,669.65,334.195C700.102,353.167,700.102,368.333,700.102,375.917L700.102,383.5" id="L_T0_T3_0" class=" edge-thickness-normal edge-pattern-solid edge-thickness-normal edge-pattern-solid flowchart-link" style=";" data-edge="true" data-et="edge" data-id="L_T0_T3_0" data-points="W3sieCI6NTE3LjM5MDYyNSwieSI6MjY5LjY2ODY0ODQyODY0MjAzfSx7IngiOjcwMC4xMDE1NjI1LCJ5IjozMzh9LHsieCI6NzAwLjEwMTU2MjUsInkiOjM4Ny41fV0=" marker-end="url(#mermaid-1784038983559_flowchart-v2-pointEnd)"></path><path d="M517.391,253.446L593.405,267.539C669.419,281.631,821.448,309.815,897.462,329.491C973.477,349.167,973.477,360.333,973.477,365.917L973.477,371.5" id="L_T0_T5_0" class=" edge-thickness-normal edge-pattern-solid edge-thickness-normal edge-pattern-solid flowchart-link" style=";" data-edge="true" data-et="edge" data-id="L_T0_T5_0" data-points="W3sieCI6NTE3LjM5MDYyNSwieSI6MjUzLjQ0NjQwMzYwODY0MTEzfSx7IngiOjk3My40NzY1NjI1LCJ5IjozMzh9LHsieCI6OTczLjQ3NjU2MjUsInkiOjM3NS41fV0=" marker-end="url(#mermaid-1784038983559_flowchart-v2-pointEnd)"></path><path d="M847.488,94.672L817.144,101.726C786.799,108.781,726.111,122.891,695.766,139.529C665.422,156.167,665.422,175.333,665.422,184.917L665.422,194.5" id="L_PR2_T6_0" class=" edge-thickness-normal edge-pattern-solid edge-thickness-normal edge-pattern-solid flowchart-link" style=";" data-edge="true" data-et="edge" data-id="L_PR2_T6_0" data-points="W3sieCI6ODQ3LjQ4ODI4MTI1LCJ5Ijo5NC42NzE3MzMxMDA1NDQ5fSx7IngiOjY2NS40MjE4NzUsInkiOjEzN30seyJ4Ijo2NjUuNDIxODc1LCJ5IjoxOTguNX1d" marker-end="url(#mermaid-1784038983559_flowchart-v2-pointEnd)"></path><path d="M943.106,99.5L943.164,105.75C943.221,112,943.337,124.5,943.395,136.333C943.453,148.167,943.453,159.333,943.453,164.917L943.453,170.5" id="L_PR2_T7_0" class=" edge-thickness-normal edge-pattern-solid edge-thickness-normal edge-pattern-solid flowchart-link" style=";" data-edge="true" data-et="edge" data-id="L_PR2_T7_0" data-points="W3sieCI6OTQzLjEwNTY1MDQzNjA0NjUsInkiOjk5LjV9LHsieCI6OTQzLjQ1MzEyNSwieSI6MTM3fSx7IngiOjk0My40NTMxMjUsInkiOjE3NC41fV0=" marker-end="url(#mermaid-1784038983559_flowchart-v2-pointEnd)"></path><path d="M1038.223,92.67L1073.157,100.058C1108.091,107.446,1177.96,122.223,1212.894,141.195C1247.828,160.167,1247.828,183.333,1247.828,194.917L1247.828,206.5" id="L_PR2_T8_0" class=" edge-thickness-normal edge-pattern-solid edge-thickness-normal edge-pattern-solid flowchart-link" style=";" data-edge="true" data-et="edge" data-id="L_PR2_T8_0" data-points="W3sieCI6MTAzOC4yMjI2NTYyNSwieSI6OTIuNjY5NjIzMzAxMjY5MzN9LHsieCI6MTI0Ny44MjgxMjUsInkiOjEzN30seyJ4IjoxMjQ3LjgyODEyNSwieSI6MjEwLjV9XQ==" marker-end="url(#mermaid-1784038983559_flowchart-v2-pointEnd)"></path><path d="M172.703,477.5L172.703,483.75C172.703,490,172.703,502.5,224.506,517.859C276.309,533.218,379.915,551.435,431.718,560.544L483.52,569.653" id="L_T1_G_0" class=" edge-thickness-normal edge-pattern-solid edge-thickness-normal edge-pattern-solid flowchart-link" style=";" data-edge="true" data-et="edge" data-id="L_T1_G_0" data-points="W3sieCI6MTcyLjcwMzEyNSwieSI6NDc3LjV9LHsieCI6MTcyLjcwMzEyNSwieSI6NTE1fSx7IngiOjQ4Ny40NjAwMDg4OTQxNjk2LCJ5Ijo1NzAuMzQ1NjA3MjExNjYwOH1d" marker-end="url(#mermaid-1784038983559_flowchart-v2-pointEnd)"></path><path d="M449.539,465.5L449.539,473.75C449.539,482,449.539,498.5,459.783,512.747C470.027,526.993,490.514,538.986,500.758,544.983L511.002,550.979" id="L_T2_G_0" class=" edge-thickness-normal edge-pattern-solid edge-thickness-normal edge-pattern-solid flowchart-link" style=";" data-edge="true" data-et="edge" data-id="L_T2_G_0" data-points="W3sieCI6NDQ5LjUzOTA2MjUsInkiOjQ2NS41fSx7IngiOjQ0OS41MzkwNjI1LCJ5Ijo1MTV9LHsieCI6NTE0LjQ1Mzk3NDE4NDc4MjYsInkiOjU1M31d" marker-end="url(#mermaid-1784038983559_flowchart-v2-pointEnd)"></path><path d="M700.102,465.5L700.102,473.75C700.102,482,700.102,498.5,688.813,512.77C677.525,527.039,654.948,539.079,643.659,545.098L632.371,551.118" id="L_T3_G_0" class=" edge-thickness-normal edge-pattern-solid edge-thickness-normal edge-pattern-solid flowchart-link" style=";" data-edge="true" data-et="edge" data-id="L_T3_G_0" data-points="W3sieCI6NzAwLjEwMTU2MjUsInkiOjQ2NS41fSx7IngiOjcwMC4xMDE1NjI1LCJ5Ijo1MTV9LHsieCI6NjI4Ljg0MTIwMjQ0NTY1MjEsInkiOjU1M31d" marker-end="url(#mermaid-1784038983559_flowchart-v2-pointEnd)"></path><path d="M973.477,477.5L973.477,483.75C973.477,490,973.477,502.5,920.192,517.915C866.907,533.33,760.338,551.661,707.053,560.826L653.769,569.991" id="L_T5_G_0" class=" edge-thickness-normal edge-pattern-solid edge-thickness-normal edge-pattern-solid flowchart-link" style=";" data-edge="true" data-et="edge" data-id="L_T5_G_0" data-points="W3sieCI6OTczLjQ3NjU2MjUsInkiOjQ3Ny41fSx7IngiOjk3My40NzY1NjI1LCJ5Ijo1MTV9LHsieCI6NjQ5LjgyNjc0NzY5NDY0MDMsInkiOjU3MC42NjkxMjAzODkyODA2fV0=" marker-end="url(#mermaid-1784038983559_flowchart-v2-pointEnd)"></path><path d="M568.563,616L568.479,624.167C568.396,632.333,568.229,648.667,568.223,664.5C568.216,680.333,568.369,695.667,568.446,703.333L568.523,711" id="L_G_MERGE_0" class=" edge-thickness-normal edge-pattern-solid edge-thickness-normal edge-pattern-solid flowchart-link" style=";" data-edge="true" data-et="edge" data-id="L_G_MERGE_0" data-points="W3sieCI6NTY4LjU2MjUsInkiOjYxNn0seyJ4Ijo1NjguMDYyNSwieSI6NjY1fSx7IngiOjU2OC41NjI1LCJ5Ijo3MTV9XQ==" marker-end="url(#mermaid-1784038983559_flowchart-v2-pointEnd)"></path></g><g class="edgeLabels"><g class="edgeLabel"><g class="label" data-id="L_PR2_T0_0" transform="translate(0, 0)"><foreignObject width="0" height="20"><div xmlns="http://www.w3.org/1999/xhtml" class="labelBkg" style="display: table-cell; white-space: nowrap; line-height: 1.5; max-width: 200px; text-align: center;"><span class="edgeLabel "></span></div></foreignObject></g></g><g class="edgeLabel"><g class="label" data-id="L_T0_T1_0" transform="translate(0, 0)"><foreignObject width="0" height="20"><div xmlns="http://www.w3.org/1999/xhtml" class="labelBkg" style="display: table-cell; white-space: nowrap; line-height: 1.5; max-width: 200px; text-align: center;"><span class="edgeLabel "></span></div></foreignObject></g></g><g class="edgeLabel"><g class="label" data-id="L_T0_T2_0" transform="translate(0, 0)"><foreignObject width="0" height="20"><div xmlns="http://www.w3.org/1999/xhtml" class="labelBkg" style="display: table-cell; white-space: nowrap; line-height: 1.5; max-width: 200px; text-align: center;"><span class="edgeLabel "></span></div></foreignObject></g></g><g class="edgeLabel"><g class="label" data-id="L_T0_T3_0" transform="translate(0, 0)"><foreignObject width="0" height="20"><div xmlns="http://www.w3.org/1999/xhtml" class="labelBkg" style="display: table-cell; white-space: nowrap; line-height: 1.5; max-width: 200px; text-align: center;"><span class="edgeLabel "></span></div></foreignObject></g></g><g class="edgeLabel"><g class="label" data-id="L_T0_T5_0" transform="translate(0, 0)"><foreignObject width="0" height="20"><div xmlns="http://www.w3.org/1999/xhtml" class="labelBkg" style="display: table-cell; white-space: nowrap; line-height: 1.5; max-width: 200px; text-align: center;"><span class="edgeLabel "></span></div></foreignObject></g></g><g class="edgeLabel"><g class="label" data-id="L_PR2_T6_0" transform="translate(0, 0)"><foreignObject width="0" height="20"><div xmlns="http://www.w3.org/1999/xhtml" class="labelBkg" style="display: table-cell; white-space: nowrap; line-height: 1.5; max-width: 200px; text-align: center;"><span class="edgeLabel "></span></div></foreignObject></g></g><g class="edgeLabel"><g class="label" data-id="L_PR2_T7_0" transform="translate(0, 0)"><foreignObject width="0" height="20"><div xmlns="http://www.w3.org/1999/xhtml" class="labelBkg" style="display: table-cell; white-space: nowrap; line-height: 1.5; max-width: 200px; text-align: center;"><span class="edgeLabel "></span></div></foreignObject></g></g><g class="edgeLabel"><g class="label" data-id="L_PR2_T8_0" transform="translate(0, 0)"><foreignObject width="0" height="20"><div xmlns="http://www.w3.org/1999/xhtml" class="labelBkg" style="display: table-cell; white-space: nowrap; line-height: 1.5; max-width: 200px; text-align: center;"><span class="edgeLabel "></span></div></foreignObject></g></g><g class="edgeLabel"><g class="label" data-id="L_T1_G_0" transform="translate(0, 0)"><foreignObject width="0" height="20"><div xmlns="http://www.w3.org/1999/xhtml" class="labelBkg" style="display: table-cell; white-space: nowrap; line-height: 1.5; max-width: 200px; text-align: center;"><span class="edgeLabel "></span></div></foreignObject></g></g><g class="edgeLabel"><g class="label" data-id="L_T2_G_0" transform="translate(0, 0)"><foreignObject width="0" height="20"><div xmlns="http://www.w3.org/1999/xhtml" class="labelBkg" style="display: table-cell; white-space: nowrap; line-height: 1.5; max-width: 200px; text-align: center;"><span class="edgeLabel "></span></div></foreignObject></g></g><g class="edgeLabel"><g class="label" data-id="L_T3_G_0" transform="translate(0, 0)"><foreignObject width="0" height="20"><div xmlns="http://www.w3.org/1999/xhtml" class="labelBkg" style="display: table-cell; white-space: nowrap; line-height: 1.5; max-width: 200px; text-align: center;"><span class="edgeLabel "></span></div></foreignObject></g></g><g class="edgeLabel"><g class="label" data-id="L_T5_G_0" transform="translate(0, 0)"><foreignObject width="0" height="20"><div xmlns="http://www.w3.org/1999/xhtml" class="labelBkg" style="display: table-cell; white-space: nowrap; line-height: 1.5; max-width: 200px; text-align: center;"><span class="edgeLabel "></span></div></foreignObject></g></g><g class="edgeLabel" transform="translate(568.0625, 665)"><g class="label" data-id="L_G_MERGE_0" transform="translate(-30.6875, -12)"><foreignObject width="61.375" height="44"><div xmlns="http://www.w3.org/1999/xhtml" class="labelBkg" style="display: table-cell; white-space: nowrap; line-height: 1.5; max-width: 200px; text-align: center;"><span class="edgeLabel "><p>all green</p></span></div></foreignObject></g></g></g><g class="nodes"><g class="node default  " id="flowchart-PR2-0" transform="translate(942.85546875, 72.5)"><rect class="basic label-container" style="" x="-95.3671875" y="-27" width="190.734375" height="54"></rect><g class="label" style="" transform="translate(-65.3671875, -12)"><rect></rect><foreignObject width="130.734375" height="44"><div xmlns="http://www.w3.org/1999/xhtml" style="display: table-cell; white-space: nowrap; line-height: 1.5; max-width: 200px; text-align: center;"><span class="nodeLabel "><p>PR into dev / main</p></span></div></foreignObject></g></g><g class="node default  " id="flowchart-T0-1" transform="translate(431.375, 237.5)"><rect class="basic label-container" style="" x="-86.015625" y="-39" width="172.03125" height="78"></rect><g class="label" style="" transform="translate(-56.015625, -24)"><rect></rect><foreignObject width="112.03125" height="68"><div xmlns="http://www.w3.org/1999/xhtml" style="display: table-cell; white-space: nowrap; line-height: 1.5; max-width: 200px; text-align: center;"><span class="nodeLabel "><p>changes filter<br>(skip docs-only)</p></span></div></foreignObject></g></g><g class="node default  " id="flowchart-T1-3" transform="translate(172.703125, 426.5)"><rect class="basic label-container" style="" x="-129.703125" y="-51" width="259.40625" height="102"></rect><g class="label" style="" transform="translate(-99.703125, -36)"><rect></rect><foreignObject width="199.40625" height="92"><div xmlns="http://www.w3.org/1999/xhtml" style="display: table-cell; white-space: nowrap; line-height: 1.5; max-width: 200px; text-align: center;"><span class="nodeLabel "><p>Lint<br>black --check + flake8<br>+ requirements.txt ⇄ uv.lock</p></span></div></foreignObject></g></g><g class="node default  " id="flowchart-T2-5" transform="translate(449.5390625, 426.5)"><rect class="basic label-container" style="" x="-97.1328125" y="-39" width="194.265625" height="78"></rect><g class="label" style="" transform="translate(-67.1328125, -24)"><rect></rect><foreignObject width="134.265625" height="68"><div xmlns="http://www.w3.org/1999/xhtml" style="display: table-cell; white-space: nowrap; line-height: 1.5; max-width: 200px; text-align: center;"><span class="nodeLabel "><p>Type Check<br>mypy (fixed config)</p></span></div></foreignObject></g></g><g class="node default  " id="flowchart-T3-7" transform="translate(700.1015625, 426.5)"><rect class="basic label-container" style="" x="-93.375" y="-39" width="186.75" height="78"></rect><g class="label" style="" transform="translate(-63.375, -24)"><rect></rect><foreignObject width="126.75" height="68"><div xmlns="http://www.w3.org/1999/xhtml" style="display: table-cell; white-space: nowrap; line-height: 1.5; max-width: 200px; text-align: center;"><span class="nodeLabel "><p>Test<br>pytest + coverage</p></span></div></foreignObject></g></g><g class="node default  " id="flowchart-T5-9" transform="translate(973.4765625, 426.5)"><rect class="basic label-container" style="" x="-130" y="-51" width="260" height="102"></rect><g class="label" style="" transform="translate(-100, -36)"><rect></rect><foreignObject width="200" height="92"><div xmlns="http://www.w3.org/1999/xhtml" style="display: table; white-space: break-spaces; line-height: 1.5; max-width: 200px; text-align: center; width: 200px;"><span class="nodeLabel "><p>Build<br>docker build (validate image)</p></span></div></foreignObject></g></g><g class="node default  " id="flowchart-T6-11" transform="translate(665.421875, 237.5)"><rect class="basic label-container" style="" x="-98.03125" y="-39" width="196.0625" height="78"></rect><g class="label" style="" transform="translate(-68.03125, -24)"><rect></rect><foreignObject width="136.0625" height="68"><div xmlns="http://www.w3.org/1999/xhtml" style="display: table-cell; white-space: nowrap; line-height: 1.5; max-width: 200px; text-align: center;"><span class="nodeLabel "><p>Security<br>pip-audit (advisory)</p></span></div></foreignObject></g></g><g class="node default  " id="flowchart-T7-13" transform="translate(943.453125, 237.5)"><rect class="basic label-container" style="" x="-130" y="-63" width="260" height="126"></rect><g class="label" style="" transform="translate(-100, -48)"><rect></rect><foreignObject width="200" height="116"><div xmlns="http://www.w3.org/1999/xhtml" style="display: table; white-space: break-spaces; line-height: 1.5; max-width: 200px; text-align: center; width: 200px;"><span class="nodeLabel "><p>CodeQL: Analyze (actions | python |<br>javascript-typescript) ✅ (unchanged)</p></span></div></foreignObject></g></g><g class="node default  " id="flowchart-T8-15" transform="translate(1247.828125, 237.5)"><rect class="basic label-container" style="" x="-124.375" y="-27" width="248.75" height="54"></rect><g class="label" style="" transform="translate(-94.375, -12)"><rect></rect><foreignObject width="188.75" height="44"><div xmlns="http://www.w3.org/1999/xhtml" style="display: table-cell; white-space: nowrap; line-height: 1.5; max-width: 200px; text-align: center;"><span class="nodeLabel "><p>Non-ASCII ✅ (unchanged)</p></span></div></foreignObject></g></g><g class="node default  " id="flowchart-G-20" transform="translate(568.0625, 584)"><polygon points="15.75,0 160.609375,0 176.359375,-31.5 160.609375,-63 15.75,-63 0,-31.5" class="label-container" transform="translate(-88.1796875,31.5)" style="fill:#2d6a4f !important"></polygon><g class="label" style="color:#fff !important" transform="translate(-64.9296875, -24)"><rect></rect><foreignObject width="129.859375" height="68"><div style="color: rgb(255, 255, 255) !important; display: table-cell; white-space: nowrap; line-height: 1.5; max-width: 200px; text-align: center;" xmlns="http://www.w3.org/1999/xhtml"><span style="color:#fff !important" class="nodeLabel "><p>Branch protection:<br>required checks</p></span></div></foreignObject></g></g><g class="node default  " id="flowchart-MERGE-22" transform="translate(568.0625, 734)"><g class="basic label-container outer-path"><path d="M-15.5546875 -19.5 C-5.4859655293135905 -19.5, 4.582756441372819 -19.5, 15.5546875 -19.5 C15.5546875 -19.5, 15.554687499999998 -19.5, 15.554687499999998 -19.5 C16.01330249113717 -19.485293109874156, 16.471917482274346 -19.470586219748316, 16.8040567896239 -19.45993515863156 C17.27458320609619 -19.414544041125286, 17.745109622568478 -19.369152923619012, 18.048292152847864 -19.3399052695533 C18.522456375252247 -19.263246075273422, 18.99662059765663 -19.18658688099355, 19.28228075967676 -19.140403561325776 C19.765265217793424 -19.030165510528786, 20.24824967591009 -18.91992745973179, 20.50095188623539 -18.862249829261074 C20.90829571294813 -18.74135231968411, 21.315639539660875 -18.620454810107148, 21.699297751460602 -18.50658706670804 C22.049734724297085 -18.377623021300348, 22.400171697133572 -18.248658975892653, 22.872394095147794 -18.074876768247425 C23.227671977779753 -17.917605788550194, 23.582949860411713 -17.760334808852967, 24.01542041279238 -17.568892924097174 C24.27682098266652 -17.432520414228893, 24.53822155254066 -17.29614790436061, 25.123679764076783 -16.990714730406097 C25.503070741833376 -16.76072569014119, 25.88246171958997 -16.530736649876278, 26.192618073605697 -16.342718045390892 C26.519127199974445 -16.11495941318833, 26.84563632634319 -15.887200780985768, 27.217842844578712 -15.627565626425154 C27.41372746842173 -15.471352851619109, 27.609612092264744 -15.315140076813064, 28.19514120850187 -14.848196188198123 C28.402442011263524 -14.659931084008669, 28.60974281402518 -14.471665979819212, 29.120497236767985 -14.007812326905688 C29.33291016483575 -13.788478539249997, 29.545323092903516 -13.569144751594305, 29.990108442968648 -13.10986736009568 C30.201209937681117 -12.861895532391083, 30.412311432393583 -12.613923704686483, 30.800401408126582 -12.158051136245305 C30.97937164832931 -11.91824731889795, 31.158341888532032 -11.678443501550596, 31.548046464640635 -11.156274872382312 C31.69376983004342 -10.932404650921004, 31.8394931954462 -10.708534429459695, 32.22997137860425 -10.108655082055241 C32.41476004748489 -9.780544088575894, 32.59954871636553 -9.452433095096547, 32.843373974273504 -9.019496659696287 C32.98122706615764 -8.733241764815222, 33.119080158041776 -8.446986869934157, 33.38573364880834 -7.893275190886684 C33.56253771249431 -7.45656573530831, 33.73934177618028 -7.019856279729935, 33.854821729970325 -6.734618561215508 C33.991768218789765 -6.3221575563512, 34.12871470760921 -5.90969655148689, 34.24871063421488 -5.548287939305138 C34.3215971387185 -5.2703401084219434, 34.39448364322213 -4.992392277538749, 34.56578178754556 -4.339158212148133 C34.624409632587444 -4.038116618857508, 34.68303747762932 -3.737075025566883, 34.804732276581774 -3.1121979531509023 C34.86062721198142 -2.6786878718947555, 34.91652214738105 -2.245177790638609, 34.96458020250937 -1.872449005199798 C34.98730507901688 -1.5184907104052077, 35.01002995552438 -1.1645324156106174, 35.04466871591342 -0.6250057626472757 C35.04466871591342 -0.16805986949325258, 35.04466871591342 0.28888602366077054, 35.04466871591342 0.625005762647271 C35.02602100465153 0.9154589177126911, 35.007373293389655 1.205912072778111, 34.96458020250937 1.8724490051997846 C34.92647994723957 2.1679470613259, 34.88837969196978 2.4634451174520153, 34.804732276581774 3.1121979531508885 C34.737515472985166 3.4573420333430005, 34.67029866938856 3.8024861135351125, 34.56578178754556 4.339158212148129 C34.454809734798125 4.762342744865993, 34.3438376820507 5.185527277583858, 34.24871063421489 5.548287939305125 C34.1279718288373 5.911933983986208, 34.007233023459726 6.2755800286672905, 33.854821729970325 6.734618561215495 C33.68974014182127 7.142373275579057, 33.524658553672204 7.55012798994262, 33.38573364880834 7.893275190886679 C33.231885040221464 8.212745118450218, 33.07803643163458 8.532215046013759, 32.843373974273504 9.019496659696284 C32.628292483972416 9.40139562508843, 32.41321099367133 9.783294590480576, 32.22997137860425 10.108655082055236 C32.02005082933552 10.431149417292247, 31.81013028006679 10.753643752529255, 31.54804646464064 11.156274872382301 C31.28341459718027 11.51085746632012, 31.018782729719895 11.865440060257937, 30.800401408126582 12.158051136245302 C30.579497083125833 12.417537926203362, 30.35859275812508 12.677024716161423, 29.99010844296866 13.10986736009567 C29.807875476422993 13.29803785965887, 29.62564250987733 13.48620835922207, 29.12049723676799 14.007812326905684 C28.815105459643714 14.285161058666311, 28.50971368251944 14.562509790426937, 28.195141208501887 14.848196188198111 C27.889799620779574 15.091697978925758, 27.58445803305726 15.335199769653407, 27.217842844578715 15.627565626425152 C26.980464102062896 15.793150761244044, 26.743085359547077 15.958735896062935, 26.192618073605708 16.34271804539089 C25.85706981856279 16.54612936949833, 25.521521563519865 16.749540693605773, 25.123679764076787 16.990714730406093 C24.779511833144877 17.17026691952319, 24.435343902212967 17.349819108640286, 24.015420412792388 17.56889292409717 C23.650559961821237 17.73040582254137, 23.285699510850083 17.89191872098557, 22.872394095147804 18.07487676824742 C22.452985383800183 18.229223050994975, 22.033576672452558 18.383569333742525, 21.699297751460616 18.506587066708033 C21.349678640752067 18.61035218357817, 21.00005953004352 18.714117300448308, 20.500951886235413 18.86224982926107 C20.21179529890753 18.928247933395586, 19.92263871157964 18.9942460375301, 19.282280759676766 19.140403561325773 C19.026934527495076 19.181685959905302, 18.771588295313386 19.222968358484835, 18.04829215284788 19.3399052695533 C17.77219663404132 19.366539872199123, 17.496101115234765 19.39317447484495, 16.8040567896239 19.45993515863156 C16.519987488135776 19.46904470822293, 16.235918186647655 19.478154257814303, 15.554687500000004 19.5 C15.554687500000002 19.5, 15.554687500000002 19.5, 15.5546875 19.5 C8.919264856497158 19.5, 2.2838422129943172 19.5, -15.554687499999996 19.5 C-15.81530278484581 19.491642575071875, -16.075918069691625 19.483285150143747, -16.804056789623893 19.45993515863156 C-17.08626359286666 19.432711007726066, -17.368470396109434 19.405486856820573, -18.04829215284787 19.3399052695533 C-18.47058886487944 19.271631612111946, -18.89288557691101 19.203357954670597, -19.28228075967676 19.140403561325773 C-19.590740964179673 19.069999532538933, -19.899201168682588 18.99959550375209, -20.500951886235388 18.862249829261074 C-20.875747154411812 18.75101256100682, -21.25054242258824 18.639775292752567, -21.69929775146059 18.506587066708043 C-22.10446817971092 18.35748060375754, -22.50963860796125 18.208374140807038, -22.872394095147797 18.074876768247425 C-23.17688961402671 17.94008563457837, -23.48138513290562 17.80529450090932, -24.01542041279238 17.568892924097174 C-24.39323779159961 17.371785839577022, -24.77105517040684 17.174678755056874, -25.12367976407678 16.990714730406097 C-25.537140231076627 16.740072565547386, -25.950600698076475 16.489430400688672, -26.192618073605686 16.3427180453909 C-26.496581432762966 16.130686364404525, -26.800544791920245 15.918654683418149, -27.217842844578712 15.627565626425156 C-27.540674487613526 15.370115982015706, -27.863506130648343 15.112666337606258, -28.19514120850187 14.848196188198125 C-28.38087421317533 14.679518387579702, -28.566607217848787 14.51084058696128, -29.120497236767974 14.007812326905697 C-29.389866105110578 13.729666854746577, -29.659234973453177 13.451521382587456, -29.990108442968655 13.109867360095677 C-30.180011802362063 12.886796068344916, -30.36991516175547 12.663724776594155, -30.80040140812658 12.158051136245307 C-30.978960907573477 11.918797674091511, -31.157520407020375 11.679544211937714, -31.548046464640635 11.156274872382316 C-31.78215514926383 10.796621065817064, -32.016263833887024 10.436967259251814, -32.22997137860425 10.108655082055249 C-32.39390377182848 9.817576517930783, -32.5578361650527 9.52649795380632, -32.843373974273504 9.019496659696289 C-32.99855167280074 8.697266848433632, -33.15372937132798 8.375037037170976, -33.38573364880834 7.893275190886686 C-33.56153329358025 7.459046669445165, -33.737332938352154 7.024818148003645, -33.854821729970325 6.73461856121551 C-33.93455756321144 6.494466935673041, -34.01429339645255 6.254315310130573, -34.24871063421488 5.5482879393051325 C-34.36473598844592 5.105832977915563, -34.48076134267696 4.663378016525995, -34.56578178754556 4.339158212148136 C-34.653948283699684 3.886441888392269, -34.74211477985381 3.433725564636402, -34.804732276581774 3.112197953150904 C-34.851353804072886 2.750610592391755, -34.897975331564005 2.3890232316326063, -34.96458020250937 1.872449005199809 C-34.99613831217743 1.3809059738720826, -35.0276964218455 0.889362942544356, -35.04466871591342 0.6250057626472781 C-35.04466871591342 0.36954523301654113, -35.04466871591342 0.11408470338580412, -35.04466871591342 -0.6250057626472687 C-35.02083641760046 -0.9962130459565512, -34.997004119287496 -1.3674203292658338, -34.96458020250937 -1.8724490051997822 C-34.91492203863529 -2.257587918093543, -34.865263874761204 -2.642726830987304, -34.804732276581774 -3.112197953150895 C-34.717994891146525 -3.557576095407991, -34.63125750571128 -4.002954237665087, -34.56578178754556 -4.339158212148126 C-34.465633879316236 -4.721065590604528, -34.36548597108691 -5.1029729690609305, -34.24871063421489 -5.548287939305123 C-34.09589667918084 -6.0085392242704, -33.9430827241468 -6.468790509235678, -33.85482172997033 -6.734618561215485 C-33.72685907922033 -7.050688782557539, -33.598896428470326 -7.366759003899594, -33.38573364880834 -7.893275190886676 C-33.22998083696962 -8.216699237246093, -33.07422802513089 -8.54012328360551, -32.843373974273504 -9.019496659696282 C-32.69518619639748 -9.282619064954833, -32.54699841852145 -9.545741470213386, -32.22997137860425 -10.108655082055243 C-32.02621424738229 -10.421680752062926, -31.822457116160336 -10.73470642207061, -31.54804646464064 -11.156274872382308 C-31.390419221972653 -11.367481017420193, -31.23279197930466 -11.578687162458076, -30.800401408126586 -12.158051136245302 C-30.552663742870383 -12.449057894527733, -30.30492607761418 -12.740064652810164, -29.990108442968662 -13.10986736009567 C-29.65461162487255 -13.456295369580932, -29.31911480677644 -13.802723379066194, -29.120497236767996 -14.007812326905677 C-28.773458897908338 -14.322983364126738, -28.426420559048676 -14.638154401347801, -28.195141208501887 -14.848196188198107 C-27.92371829363217 -15.064648739939601, -27.652295378762457 -15.281101291681093, -27.21784284457872 -15.627565626425149 C-26.94129314807134 -15.820474723065285, -26.664743451563957 -16.01338381970542, -26.19261807360571 -16.342718045390885 C-25.885173251618628 -16.529092903225774, -25.57772842963155 -16.715467761060662, -25.12367976407679 -16.99071473040609 C-24.6907663032938 -17.21656540560227, -24.257852842510804 -17.442416080798456, -24.015420412792388 -17.56889292409717 C-23.62335247061273 -17.742449771817824, -23.23128452843307 -17.916006619538482, -22.872394095147804 -18.07487676824742 C-22.440493523464585 -18.233820171071965, -22.00859295178137 -18.392763573896506, -21.69929775146062 -18.506587066708033 C-21.341047897529272 -18.612913742863, -20.982798043597924 -18.719240419017968, -20.500951886235413 -18.862249829261067 C-20.18518143292828 -18.934322374633638, -19.869410979621154 -19.006394920006212, -19.282280759676766 -19.140403561325773 C-19.033736035273826 -19.180586344874115, -18.785191310870886 -19.220769128422457, -18.048292152847882 -19.3399052695533 C-17.773341985386768 -19.366429381532317, -17.498391817925654 -19.392953493511335, -16.804056789623903 -19.45993515863156 C-16.5448640831262 -19.468246964240944, -16.2856713766285 -19.476558769850325, -15.554687500000005 -19.5 C-15.554687500000004 -19.5, -15.554687500000002 -19.5, -15.5546875 -19.5" stroke="none" stroke-width="0" fill="#ECECFF" style=""></path><path d="M-15.5546875 -19.5 C-6.242240543643181 -19.5, 3.070206412713638 -19.5, 15.5546875 -19.5 M-15.5546875 -19.5 C-4.245212822770254 -19.5, 7.064261854459492 -19.5, 15.5546875 -19.5 M15.5546875 -19.5 C15.5546875 -19.5, 15.554687499999998 -19.5, 15.554687499999998 -19.5 M15.5546875 -19.5 C15.5546875 -19.5, 15.554687499999998 -19.5, 15.554687499999998 -19.5 M15.554687499999998 -19.5 C15.97379162311121 -19.486560146508513, 16.39289574622242 -19.473120293017022, 16.8040567896239 -19.45993515863156 M15.554687499999998 -19.5 C15.91198090095706 -19.48854229606072, 16.26927430191412 -19.477084592121447, 16.8040567896239 -19.45993515863156 M16.8040567896239 -19.45993515863156 C17.30161125347565 -19.41193667790057, 17.799165717327398 -19.363938197169585, 18.048292152847864 -19.3399052695533 M16.8040567896239 -19.45993515863156 C17.16761616702186 -19.4248630227381, 17.531175544419817 -19.38979088684464, 18.048292152847864 -19.3399052695533 M18.048292152847864 -19.3399052695533 C18.435169698040603 -19.27735790832671, 18.822047243233342 -19.21481054710012, 19.28228075967676 -19.140403561325776 M18.048292152847864 -19.3399052695533 C18.37995320024454 -19.286284883480043, 18.71161424764122 -19.232664497406784, 19.28228075967676 -19.140403561325776 M19.28228075967676 -19.140403561325776 C19.565221501973134 -19.075824183257524, 19.848162244269506 -19.01124480518927, 20.50095188623539 -18.862249829261074 M19.28228075967676 -19.140403561325776 C19.5585465228848 -19.077347703676125, 19.834812286092838 -19.014291846026477, 20.50095188623539 -18.862249829261074 M20.50095188623539 -18.862249829261074 C20.800581058953032 -18.7733214635841, 21.100210231670673 -18.68439309790713, 21.699297751460602 -18.50658706670804 M20.50095188623539 -18.862249829261074 C20.87726962351913 -18.750560700167373, 21.253587360802864 -18.638871571073672, 21.699297751460602 -18.50658706670804 M21.699297751460602 -18.50658706670804 C22.04071293979134 -18.380943121394925, 22.38212812812208 -18.255299176081806, 22.872394095147794 -18.074876768247425 M21.699297751460602 -18.50658706670804 C22.05959579557185 -18.37399405591649, 22.419893839683095 -18.24140104512494, 22.872394095147794 -18.074876768247425 M22.872394095147794 -18.074876768247425 C23.263102526293903 -17.90192173573286, 23.65381095744001 -17.728966703218298, 24.01542041279238 -17.568892924097174 M22.872394095147794 -18.074876768247425 C23.22576733917492 -17.91844891556146, 23.57914058320204 -17.762021062875494, 24.01542041279238 -17.568892924097174 M24.01542041279238 -17.568892924097174 C24.326273039148024 -17.406721308038048, 24.637125665503664 -17.244549691978918, 25.123679764076783 -16.990714730406097 M24.01542041279238 -17.568892924097174 C24.298359083826693 -17.421284000649443, 24.581297754861005 -17.27367507720171, 25.123679764076783 -16.990714730406097 M25.123679764076783 -16.990714730406097 C25.52821438780261 -16.745483464194173, 25.932749011528433 -16.500252197982253, 26.192618073605697 -16.342718045390892 M25.123679764076783 -16.990714730406097 C25.497782189256565 -16.763931641792237, 25.871884614436347 -16.537148553178373, 26.192618073605697 -16.342718045390892 M26.192618073605697 -16.342718045390892 C26.442747343495988 -16.168238694637004, 26.692876613386282 -15.993759343883115, 27.217842844578712 -15.627565626425154 M26.192618073605697 -16.342718045390892 C26.492161477657245 -16.1337695337495, 26.791704881708796 -15.924821022108112, 27.217842844578712 -15.627565626425154 M27.217842844578712 -15.627565626425154 C27.429813079938537 -15.458525004490554, 27.641783315298362 -15.289484382555953, 28.19514120850187 -14.848196188198123 M27.217842844578712 -15.627565626425154 C27.586203420161553 -15.333807869884433, 27.954563995744394 -15.040050113343712, 28.19514120850187 -14.848196188198123 M28.19514120850187 -14.848196188198123 C28.543728568546392 -14.531618370921825, 28.892315928590914 -14.215040553645526, 29.120497236767985 -14.007812326905688 M28.19514120850187 -14.848196188198123 C28.522668683233476 -14.550744401548984, 28.850196157965083 -14.253292614899845, 29.120497236767985 -14.007812326905688 M29.120497236767985 -14.007812326905688 C29.36680163566431 -13.753482813078007, 29.61310603456063 -13.499153299250327, 29.990108442968648 -13.10986736009568 M29.120497236767985 -14.007812326905688 C29.370641146674657 -13.749518202730103, 29.620785056581333 -13.49122407855452, 29.990108442968648 -13.10986736009568 M29.990108442968648 -13.10986736009568 C30.270925194071083 -12.780004025324962, 30.551741945173518 -12.45014069055424, 30.800401408126582 -12.158051136245305 M29.990108442968648 -13.10986736009568 C30.198905774600476 -12.864602133456195, 30.407703106232304 -12.619336906816708, 30.800401408126582 -12.158051136245305 M30.800401408126582 -12.158051136245305 C30.966392662617515 -11.935637977341829, 31.13238391710845 -11.713224818438352, 31.548046464640635 -11.156274872382312 M30.800401408126582 -12.158051136245305 C31.028198174151598 -11.852824222484093, 31.25599494017661 -11.547597308722882, 31.548046464640635 -11.156274872382312 M31.548046464640635 -11.156274872382312 C31.81352451665672 -10.748429293646982, 32.079002568672806 -10.34058371491165, 32.22997137860425 -10.108655082055241 M31.548046464640635 -11.156274872382312 C31.72406946282829 -10.88585627837281, 31.90009246101594 -10.615437684363306, 32.22997137860425 -10.108655082055241 M32.22997137860425 -10.108655082055241 C32.35633431019741 -9.884284901377248, 32.482697241790575 -9.659914720699254, 32.843373974273504 -9.019496659696287 M32.22997137860425 -10.108655082055241 C32.4450197678375 -9.726814890960888, 32.66006815707075 -9.344974699866533, 32.843373974273504 -9.019496659696287 M32.843373974273504 -9.019496659696287 C33.00072932088334 -8.692744915595915, 33.15808466749316 -8.365993171495543, 33.38573364880834 -7.893275190886684 M32.843373974273504 -9.019496659696287 C33.02021400226532 -8.652284557800826, 33.197054030257135 -8.285072455905365, 33.38573364880834 -7.893275190886684 M33.38573364880834 -7.893275190886684 C33.48664645473933 -7.644018609220771, 33.58755926067032 -7.394762027554858, 33.854821729970325 -6.734618561215508 M33.38573364880834 -7.893275190886684 C33.51786276216331 -7.566913726357282, 33.64999187551828 -7.240552261827881, 33.854821729970325 -6.734618561215508 M33.854821729970325 -6.734618561215508 C33.96573255052533 -6.400572840943289, 34.07664337108034 -6.0665271206710685, 34.24871063421488 -5.548287939305138 M33.854821729970325 -6.734618561215508 C33.988252264096495 -6.332747051696041, 34.12168279822266 -5.930875542176572, 34.24871063421488 -5.548287939305138 M34.24871063421488 -5.548287939305138 C34.35741544049687 -5.133749399990848, 34.46612024677886 -4.719210860676559, 34.56578178754556 -4.339158212148133 M34.24871063421488 -5.548287939305138 C34.33954316575526 -5.201904129473492, 34.43037569729563 -4.855520319641847, 34.56578178754556 -4.339158212148133 M34.56578178754556 -4.339158212148133 C34.637868627182954 -3.969007526169077, 34.70995546682034 -3.598856840190021, 34.804732276581774 -3.1121979531509023 M34.56578178754556 -4.339158212148133 C34.628139112217 -4.018966529185517, 34.690496436888445 -3.6987748462229, 34.804732276581774 -3.1121979531509023 M34.804732276581774 -3.1121979531509023 C34.86527223500522 -2.6426619905856183, 34.925812193428676 -2.1731260280203344, 34.96458020250937 -1.872449005199798 M34.804732276581774 -3.1121979531509023 C34.86702796246481 -2.629044915116686, 34.92932364834785 -2.145891877082469, 34.96458020250937 -1.872449005199798 M34.96458020250937 -1.872449005199798 C34.988330629249674 -1.5025169377201555, 35.012081055989974 -1.132584870240513, 35.04466871591342 -0.6250057626472757 M34.96458020250937 -1.872449005199798 C34.993905739169904 -1.4156801005648298, 35.02323127583044 -0.9589111959298616, 35.04466871591342 -0.6250057626472757 M35.04466871591342 -0.6250057626472757 C35.04466871591342 -0.31489937037886595, 35.04466871591342 -0.004792978110456203, 35.04466871591342 0.625005762647271 M35.04466871591342 -0.6250057626472757 C35.04466871591342 -0.22537300395771914, 35.04466871591342 0.1742597547318374, 35.04466871591342 0.625005762647271 M35.04466871591342 0.625005762647271 C35.02732917054703 0.8950831779579465, 35.00998962518063 1.165160593268622, 34.96458020250937 1.8724490051997846 M35.04466871591342 0.625005762647271 C35.0152556813898 1.0831375171266813, 34.98584264686619 1.5412692716060914, 34.96458020250937 1.8724490051997846 M34.96458020250937 1.8724490051997846 C34.926687371730175 2.1663383179374067, 34.88879454095098 2.4602276306750284, 34.804732276581774 3.1121979531508885 M34.96458020250937 1.8724490051997846 C34.91595507657582 2.2495758798231726, 34.86732995064227 2.6267027544465607, 34.804732276581774 3.1121979531508885 M34.804732276581774 3.1121979531508885 C34.71656369253474 3.564924997795566, 34.62839510848771 4.017652042440243, 34.56578178754556 4.339158212148129 M34.804732276581774 3.1121979531508885 C34.752071939168204 3.3825976560033175, 34.69941160175463 3.6529973588557465, 34.56578178754556 4.339158212148129 M34.56578178754556 4.339158212148129 C34.49568578244934 4.606464659380781, 34.42558977735313 4.873771106613434, 34.24871063421489 5.548287939305125 M34.56578178754556 4.339158212148129 C34.48685059108022 4.640157073267407, 34.407919394614886 4.941155934386685, 34.24871063421489 5.548287939305125 M34.24871063421489 5.548287939305125 C34.112754398864425 5.957766458496321, 33.97679816351396 6.367244977687516, 33.854821729970325 6.734618561215495 M34.24871063421489 5.548287939305125 C34.14450773313476 5.862130474880838, 34.04030483205463 6.175973010456551, 33.854821729970325 6.734618561215495 M33.854821729970325 6.734618561215495 C33.72969924456126 7.043673519254568, 33.6045767591522 7.352728477293642, 33.38573364880834 7.893275190886679 M33.854821729970325 6.734618561215495 C33.76022752973955 6.968268064639947, 33.665633329508786 7.201917568064398, 33.38573364880834 7.893275190886679 M33.38573364880834 7.893275190886679 C33.20419763842981 8.270238600686074, 33.02266162805128 8.647202010485469, 32.843373974273504 9.019496659696284 M33.38573364880834 7.893275190886679 C33.2535554235237 8.167746103851192, 33.12137719823906 8.442217016815706, 32.843373974273504 9.019496659696284 M32.843373974273504 9.019496659696284 C32.69443998292739 9.28394404253328, 32.54550599158127 9.548391425370278, 32.22997137860425 10.108655082055236 M32.843373974273504 9.019496659696284 C32.68620421946588 9.298567474520679, 32.52903446465825 9.577638289345074, 32.22997137860425 10.108655082055236 M32.22997137860425 10.108655082055236 C32.04734385621727 10.38921999879798, 31.864716333830284 10.669784915540722, 31.54804646464064 11.156274872382301 M32.22997137860425 10.108655082055236 C32.03659400830408 10.405734651930983, 31.843216638003906 10.70281422180673, 31.54804646464064 11.156274872382301 M31.54804646464064 11.156274872382301 C31.297994539574052 11.491321671772523, 31.047942614507466 11.826368471162747, 30.800401408126582 12.158051136245302 M31.54804646464064 11.156274872382301 C31.285433197146457 11.508152726263669, 31.022819929652268 11.860030580145036, 30.800401408126582 12.158051136245302 M30.800401408126582 12.158051136245302 C30.57852803005459 12.418676231081529, 30.35665465198259 12.679301325917756, 29.99010844296866 13.10986736009567 M30.800401408126582 12.158051136245302 C30.49362402396998 12.518409307803317, 30.186846639813375 12.878767479361333, 29.99010844296866 13.10986736009567 M29.99010844296866 13.10986736009567 C29.769822035531636 13.337331161624796, 29.549535628094617 13.564794963153924, 29.12049723676799 14.007812326905684 M29.99010844296866 13.10986736009567 C29.795550494365344 13.310764415533239, 29.600992545762033 13.511661470970806, 29.12049723676799 14.007812326905684 M29.12049723676799 14.007812326905684 C28.781388135359506 14.315782240469714, 28.442279033951024 14.623752154033744, 28.195141208501887 14.848196188198111 M29.12049723676799 14.007812326905684 C28.813010492378684 14.287063652506616, 28.50552374798938 14.566314978107547, 28.195141208501887 14.848196188198111 M28.195141208501887 14.848196188198111 C27.88712964545931 15.093827213192641, 27.579118082416734 15.339458238187172, 27.217842844578715 15.627565626425152 M28.195141208501887 14.848196188198111 C27.96691658530496 15.030199251885374, 27.73869196210803 15.212202315572638, 27.217842844578715 15.627565626425152 M27.217842844578715 15.627565626425152 C26.930997750417724 15.827656346787865, 26.644152656256733 16.027747067150578, 26.192618073605708 16.34271804539089 M27.217842844578715 15.627565626425152 C26.98528660925103 15.789786788992574, 26.75273037392334 15.952007951559997, 26.192618073605708 16.34271804539089 M26.192618073605708 16.34271804539089 C25.802661123625697 16.579112240110177, 25.412704173645682 16.81550643482947, 25.123679764076787 16.990714730406093 M26.192618073605708 16.34271804539089 C25.912401637075693 16.51258689594995, 25.632185200545674 16.682455746509014, 25.123679764076787 16.990714730406093 M25.123679764076787 16.990714730406093 C24.69616043277146 17.21375129170888, 24.268641101466134 17.43678785301167, 24.015420412792388 17.56889292409717 M25.123679764076787 16.990714730406093 C24.783856132715496 17.168000501219854, 24.444032501354204 17.345286272033615, 24.015420412792388 17.56889292409717 M24.015420412792388 17.56889292409717 C23.67807861870363 17.71822412945149, 23.34073682461487 17.867555334805804, 22.872394095147804 18.07487676824742 M24.015420412792388 17.56889292409717 C23.78184002769193 17.672292031665204, 23.54825964259147 17.77569113923324, 22.872394095147804 18.07487676824742 M22.872394095147804 18.07487676824742 C22.503014676866567 18.210811808680827, 22.13363525858533 18.346746849114236, 21.699297751460616 18.506587066708033 M22.872394095147804 18.07487676824742 C22.542388418449338 18.19632190781149, 22.212382741750872 18.31776704737556, 21.699297751460616 18.506587066708033 M21.699297751460616 18.506587066708033 C21.281104263748357 18.63070469871862, 20.862910776036102 18.75482233072921, 20.500951886235413 18.86224982926107 M21.699297751460616 18.506587066708033 C21.37792319974834 18.60196934672679, 21.056548648036067 18.69735162674555, 20.500951886235413 18.86224982926107 M20.500951886235413 18.86224982926107 C20.20562386453431 18.9296565230189, 19.910295842833204 18.99706321677673, 19.282280759676766 19.140403561325773 M20.500951886235413 18.86224982926107 C20.149650555281898 18.942432065595785, 19.798349224328383 19.0226143019305, 19.282280759676766 19.140403561325773 M19.282280759676766 19.140403561325773 C18.914841773965513 19.199808247003677, 18.54740278825426 19.25921293268158, 18.04829215284788 19.3399052695533 M19.282280759676766 19.140403561325773 C18.899007847735646 19.20236815340259, 18.515734935794526 19.264332745479408, 18.04829215284788 19.3399052695533 M18.04829215284788 19.3399052695533 C17.750915195723305 19.36859286695899, 17.453538238598735 19.39728046436468, 16.8040567896239 19.45993515863156 M18.04829215284788 19.3399052695533 C17.70666147811263 19.37286196987401, 17.365030803377383 19.40581867019472, 16.8040567896239 19.45993515863156 M16.8040567896239 19.45993515863156 C16.53425973572194 19.46858702502209, 16.264462681819982 19.477238891412615, 15.554687500000004 19.5 M16.8040567896239 19.45993515863156 C16.402859545776597 19.47280077335868, 16.001662301929294 19.4856663880858, 15.554687500000004 19.5 M15.554687500000004 19.5 C15.554687500000004 19.5, 15.554687500000002 19.5, 15.5546875 19.5 M15.554687500000004 19.5 C15.554687500000002 19.5, 15.554687500000002 19.5, 15.5546875 19.5 M15.5546875 19.5 C8.452787828913431 19.5, 1.3508881578268621 19.5, -15.554687499999996 19.5 M15.5546875 19.5 C8.257534328729285 19.5, 0.9603811574585706 19.5, -15.554687499999996 19.5 M-15.554687499999996 19.5 C-15.832495008779206 19.491091253912963, -16.110302517558416 19.482182507825925, -16.804056789623893 19.45993515863156 M-15.554687499999996 19.5 C-16.028755181122694 19.484797572183158, -16.502822862245388 19.469595144366316, -16.804056789623893 19.45993515863156 M-16.804056789623893 19.45993515863156 C-17.08377854234177 19.43295073756149, -17.363500295059648 19.405966316491426, -18.04829215284787 19.3399052695533 M-16.804056789623893 19.45993515863156 C-17.26034482787052 19.41591760034856, -17.71663286611715 19.371900042065562, -18.04829215284787 19.3399052695533 M-18.04829215284787 19.3399052695533 C-18.387224924780448 19.28510924745014, -18.726157696713024 19.230313225346986, -19.28228075967676 19.140403561325773 M-18.04829215284787 19.3399052695533 C-18.320919148781584 19.295829051104665, -18.5935461447153 19.25175283265603, -19.28228075967676 19.140403561325773 M-19.28228075967676 19.140403561325773 C-19.750949915674784 19.033432884821284, -20.219619071672813 18.926462208316796, -20.500951886235388 18.862249829261074 M-19.28228075967676 19.140403561325773 C-19.713203173555883 19.042048332389413, -20.14412558743501 18.94369310345305, -20.500951886235388 18.862249829261074 M-20.500951886235388 18.862249829261074 C-20.814318402346714 18.769244292173642, -21.127684918458037 18.67623875508621, -21.69929775146059 18.506587066708043 M-20.500951886235388 18.862249829261074 C-20.96929071674178 18.723249322727465, -21.437629547248175 18.584248816193856, -21.69929775146059 18.506587066708043 M-21.69929775146059 18.506587066708043 C-22.034339256415443 18.38328869579494, -22.369380761370294 18.25999032488183, -22.872394095147797 18.074876768247425 M-21.69929775146059 18.506587066708043 C-21.96759145946332 18.407852502083188, -22.23588516746605 18.309117937458335, -22.872394095147797 18.074876768247425 M-22.872394095147797 18.074876768247425 C-23.15999916103337 17.947562537081037, -23.44760422691894 17.82024830591465, -24.01542041279238 17.568892924097174 M-22.872394095147797 18.074876768247425 C-23.29802569560425 17.88646228463818, -23.7236572960607 17.698047801028938, -24.01542041279238 17.568892924097174 M-24.01542041279238 17.568892924097174 C-24.24945691567156 17.44679623045264, -24.48349341855074 17.324699536808108, -25.12367976407678 16.990714730406097 M-24.01542041279238 17.568892924097174 C-24.30467171462995 17.417990705202815, -24.59392301646752 17.267088486308456, -25.12367976407678 16.990714730406097 M-25.12367976407678 16.990714730406097 C-25.529583759036232 16.744653343305032, -25.935487753995684 16.498591956203967, -26.192618073605686 16.3427180453909 M-25.12367976407678 16.990714730406097 C-25.341412484136733 16.858723875966266, -25.559145204196682 16.72673302152643, -26.192618073605686 16.3427180453909 M-26.192618073605686 16.3427180453909 C-26.55798888727367 16.08785118242372, -26.92335970094165 15.832984319456543, -27.217842844578712 15.627565626425156 M-26.192618073605686 16.3427180453909 C-26.562309743899963 16.084837139888087, -26.93200141419424 15.826956234385273, -27.217842844578712 15.627565626425156 M-27.217842844578712 15.627565626425156 C-27.48237318933042 15.416609715933781, -27.746903534082126 15.205653805442406, -28.19514120850187 14.848196188198125 M-27.217842844578712 15.627565626425156 C-27.528957692319523 15.379459814465656, -27.840072540060337 15.131354002506157, -28.19514120850187 14.848196188198125 M-28.19514120850187 14.848196188198125 C-28.54546703515212 14.530039541547808, -28.895792861802374 14.21188289489749, -29.120497236767974 14.007812326905697 M-28.19514120850187 14.848196188198125 C-28.40639002915698 14.65634559861666, -28.617638849812096 14.464495009035195, -29.120497236767974 14.007812326905697 M-29.120497236767974 14.007812326905697 C-29.31372092056363 13.808293009427215, -29.506944604359283 13.608773691948732, -29.990108442968655 13.109867360095677 M-29.120497236767974 14.007812326905697 C-29.404695201250508 13.714354595490661, -29.68889316573304 13.420896864075628, -29.990108442968655 13.109867360095677 M-29.990108442968655 13.109867360095677 C-30.163851964989263 12.905778332843802, -30.337595487009867 12.701689305591929, -30.80040140812658 12.158051136245307 M-29.990108442968655 13.109867360095677 C-30.174282536377525 12.893525990174822, -30.358456629786396 12.67718462025397, -30.80040140812658 12.158051136245307 M-30.80040140812658 12.158051136245307 C-31.001396231127764 11.888736384428787, -31.20239105412895 11.61942163261227, -31.548046464640635 11.156274872382316 M-30.80040140812658 12.158051136245307 C-30.98268778268562 11.913804000966547, -31.164974157244657 11.669556865687786, -31.548046464640635 11.156274872382316 M-31.548046464640635 11.156274872382316 C-31.714326230688762 10.900824499363287, -31.88060599673689 10.645374126344258, -32.22997137860425 10.108655082055249 M-31.548046464640635 11.156274872382316 C-31.7520121839684 10.842928755030362, -31.955977903296166 10.52958263767841, -32.22997137860425 10.108655082055249 M-32.22997137860425 10.108655082055249 C-32.4425612162818 9.731180298203368, -32.65515105395936 9.353705514351487, -32.843373974273504 9.019496659696289 M-32.22997137860425 10.108655082055249 C-32.37191913015355 9.856612475410985, -32.513866881702846 9.604569868766722, -32.843373974273504 9.019496659696289 M-32.843373974273504 9.019496659696289 C-32.996122692648356 8.702310677691905, -33.14887141102321 8.38512469568752, -33.38573364880834 7.893275190886686 M-32.843373974273504 9.019496659696289 C-32.982881332881135 8.729806644568251, -33.122388691488766 8.440116629440213, -33.38573364880834 7.893275190886686 M-33.38573364880834 7.893275190886686 C-33.56392816837063 7.4531312824111735, -33.74212268793291 7.012987373935661, -33.854821729970325 6.73461856121551 M-33.38573364880834 7.893275190886686 C-33.54967058952723 7.488347777805905, -33.713607530246115 7.083420364725124, -33.854821729970325 6.73461856121551 M-33.854821729970325 6.73461856121551 C-33.994332952028984 6.314432988469425, -34.13384417408764 5.894247415723339, -34.24871063421488 5.5482879393051325 M-33.854821729970325 6.73461856121551 C-34.00820698695323 6.272646605804857, -34.16159224393614 5.810674650394204, -34.24871063421488 5.5482879393051325 M-34.24871063421488 5.5482879393051325 C-34.33090567396425 5.234842629185205, -34.413100713713625 4.921397319065277, -34.56578178754556 4.339158212148136 M-34.24871063421488 5.5482879393051325 C-34.37117431333208 5.081280854736986, -34.49363799244928 4.614273770168839, -34.56578178754556 4.339158212148136 M-34.56578178754556 4.339158212148136 C-34.649654676956196 3.9084886515659854, -34.733527566366824 3.477819090983835, -34.804732276581774 3.112197953150904 M-34.56578178754556 4.339158212148136 C-34.63759738671481 3.970400288646285, -34.709412985884065 3.601642365144434, -34.804732276581774 3.112197953150904 M-34.804732276581774 3.112197953150904 C-34.842971364669765 2.815623137102481, -34.881210452757756 2.5190483210540577, -34.96458020250937 1.872449005199809 M-34.804732276581774 3.112197953150904 C-34.8561588746606 2.71334341378197, -34.90758547273943 2.314488874413036, -34.96458020250937 1.872449005199809 M-34.96458020250937 1.872449005199809 C-34.99462189000896 1.4045254731800147, -35.02466357750855 0.9366019411602202, -35.04466871591342 0.6250057626472781 M-34.96458020250937 1.872449005199809 C-34.98916419600261 1.4895334627001222, -35.01374818949586 1.1066179202004354, -35.04466871591342 0.6250057626472781 M-35.04466871591342 0.6250057626472781 C-35.04466871591342 0.22425943694833278, -35.04466871591342 -0.17648688875061258, -35.04466871591342 -0.6250057626472687 M-35.04466871591342 0.6250057626472781 C-35.04466871591342 0.15751252519719222, -35.04466871591342 -0.3099807122528937, -35.04466871591342 -0.6250057626472687 M-35.04466871591342 -0.6250057626472687 C-35.0173281767441 -1.050856729095411, -34.98998763757478 -1.4767076955435532, -34.96458020250937 -1.8724490051997822 M-35.04466871591342 -0.6250057626472687 C-35.0285626469909 -0.8758707867003732, -35.012456578068374 -1.1267358107534777, -34.96458020250937 -1.8724490051997822 M-34.96458020250937 -1.8724490051997822 C-34.90172011755735 -2.359979410959799, -34.83886003260534 -2.847509816719816, -34.804732276581774 -3.112197953150895 M-34.96458020250937 -1.8724490051997822 C-34.91994692040559 -2.2186159273582016, -34.87531363830181 -2.5647828495166216, -34.804732276581774 -3.112197953150895 M-34.804732276581774 -3.112197953150895 C-34.75265983431076 -3.379578938697957, -34.70058739203976 -3.6469599242450195, -34.56578178754556 -4.339158212148126 M-34.804732276581774 -3.112197953150895 C-34.74385186548967 -3.424805997029436, -34.68297145439756 -3.737414040907977, -34.56578178754556 -4.339158212148126 M-34.56578178754556 -4.339158212148126 C-34.457636589731585 -4.751562721838036, -34.34949139191761 -5.163967231527946, -34.24871063421489 -5.548287939305123 M-34.56578178754556 -4.339158212148126 C-34.44766264556018 -4.789597693698351, -34.329543503574804 -5.240037175248577, -34.24871063421489 -5.548287939305123 M-34.24871063421489 -5.548287939305123 C-34.16202943707953 -5.8093578943035915, -34.07534823994418 -6.07042784930206, -33.85482172997033 -6.734618561215485 M-34.24871063421489 -5.548287939305123 C-34.16938718464877 -5.787197530922912, -34.09006373508266 -6.026107122540701, -33.85482172997033 -6.734618561215485 M-33.85482172997033 -6.734618561215485 C-33.71251708885603 -7.086113776040867, -33.57021244774174 -7.4376089908662495, -33.38573364880834 -7.893275190886676 M-33.85482172997033 -6.734618561215485 C-33.69928527258757 -7.118796618043743, -33.54374881520481 -7.502974674872001, -33.38573364880834 -7.893275190886676 M-33.38573364880834 -7.893275190886676 C-33.27290450125024 -8.127567329948088, -33.16007535369214 -8.3618594690095, -32.843373974273504 -9.019496659696282 M-33.38573364880834 -7.893275190886676 C-33.26304528546761 -8.148040202474142, -33.140356922126884 -8.402805214061608, -32.843373974273504 -9.019496659696282 M-32.843373974273504 -9.019496659696282 C-32.62079249627355 -9.414712612703875, -32.39821101827359 -9.809928565711466, -32.22997137860425 -10.108655082055243 M-32.843373974273504 -9.019496659696282 C-32.70234503858395 -9.269907815741371, -32.561316102894395 -9.520318971786459, -32.22997137860425 -10.108655082055243 M-32.22997137860425 -10.108655082055243 C-32.076688917822906 -10.344138103919342, -31.923406457041565 -10.579621125783438, -31.54804646464064 -11.156274872382308 M-32.22997137860425 -10.108655082055243 C-31.97060089497812 -10.507117795631851, -31.71123041135199 -10.905580509208459, -31.54804646464064 -11.156274872382308 M-31.54804646464064 -11.156274872382308 C-31.38761067925811 -11.371244208794176, -31.227174893875574 -11.586213545206043, -30.800401408126586 -12.158051136245302 M-31.54804646464064 -11.156274872382308 C-31.332426747223522 -11.445185650360889, -31.116807029806402 -11.734096428339472, -30.800401408126586 -12.158051136245302 M-30.800401408126586 -12.158051136245302 C-30.48928251211854 -12.523509094663044, -30.178163616110496 -12.888967053080785, -29.990108442968662 -13.10986736009567 M-30.800401408126586 -12.158051136245302 C-30.61232237790986 -12.378979467137865, -30.424243347693128 -12.599907798030427, -29.990108442968662 -13.10986736009567 M-29.990108442968662 -13.10986736009567 C-29.788103316221427 -13.318454238391531, -29.586098189474196 -13.527041116687395, -29.120497236767996 -14.007812326905677 M-29.990108442968662 -13.10986736009567 C-29.692645710585627 -13.417022053425672, -29.39518297820259 -13.724176746755676, -29.120497236767996 -14.007812326905677 M-29.120497236767996 -14.007812326905677 C-28.873716991748648 -14.231931615984768, -28.626936746729303 -14.456050905063858, -28.195141208501887 -14.848196188198107 M-29.120497236767996 -14.007812326905677 C-28.79498799703633 -14.303431205927444, -28.469478757304664 -14.59905008494921, -28.195141208501887 -14.848196188198107 M-28.195141208501887 -14.848196188198107 C-27.949682191369458 -15.04394322242245, -27.70422317423703 -15.239690256646794, -27.21784284457872 -15.627565626425149 M-28.195141208501887 -14.848196188198107 C-27.923652027061625 -15.064701585766183, -27.652162845621362 -15.281206983334261, -27.21784284457872 -15.627565626425149 M-27.21784284457872 -15.627565626425149 C-26.83154292323583 -15.897031728899876, -26.445243001892944 -16.166497831374603, -26.19261807360571 -16.342718045390885 M-27.21784284457872 -15.627565626425149 C-26.935505329215435 -15.824512054948524, -26.653167813852146 -16.0214584834719, -26.19261807360571 -16.342718045390885 M-26.19261807360571 -16.342718045390885 C-25.89076148039079 -16.525705286104014, -25.588904887175868 -16.708692526817142, -25.12367976407679 -16.99071473040609 M-26.19261807360571 -16.342718045390885 C-25.91304971191848 -16.51219402917174, -25.633481350231246 -16.681670012952594, -25.12367976407679 -16.99071473040609 M-25.12367976407679 -16.99071473040609 C-24.719218136613232 -17.20172210238379, -24.314756509149674 -17.412729474361495, -24.015420412792388 -17.56889292409717 M-25.12367976407679 -16.99071473040609 C-24.721910776201838 -17.200317354035136, -24.320141788326886 -17.409919977664178, -24.015420412792388 -17.56889292409717 M-24.015420412792388 -17.56889292409717 C-23.619597309723087 -17.74411207015078, -23.22377420665379 -17.919331216204387, -22.872394095147804 -18.07487676824742 M-24.015420412792388 -17.56889292409717 C-23.628281471616503 -17.740267849287076, -23.24114253044062 -17.911642774476977, -22.872394095147804 -18.07487676824742 M-22.872394095147804 -18.07487676824742 C-22.6344314365796 -18.162449226303224, -22.396468778011396 -18.250021684359023, -21.69929775146062 -18.506587066708033 M-22.872394095147804 -18.07487676824742 C-22.42968810074536 -18.23779666651687, -21.986982106342918 -18.400716564786322, -21.69929775146062 -18.506587066708033 M-21.69929775146062 -18.506587066708033 C-21.418281973845005 -18.58999107442243, -21.137266196229394 -18.673395082136825, -20.500951886235413 -18.862249829261067 M-21.69929775146062 -18.506587066708033 C-21.445855208449615 -18.581807483126642, -21.192412665438614 -18.657027899545252, -20.500951886235413 -18.862249829261067 M-20.500951886235413 -18.862249829261067 C-20.23346612157686 -18.92330170953664, -19.96598035691831 -18.984353589812216, -19.282280759676766 -19.140403561325773 M-20.500951886235413 -18.862249829261067 C-20.1988233085385 -18.931208705547164, -19.89669473084159 -19.000167581833264, -19.282280759676766 -19.140403561325773 M-19.282280759676766 -19.140403561325773 C-18.83441146767968 -19.21281159517763, -18.386542175682592 -19.285219629029488, -18.048292152847882 -19.3399052695533 M-19.282280759676766 -19.140403561325773 C-18.833548356471056 -19.212951136304312, -18.384815953265345 -19.28549871128285, -18.048292152847882 -19.3399052695533 M-18.048292152847882 -19.3399052695533 C-17.58757019232712 -19.38435056298551, -17.126848231806363 -19.428795856417725, -16.804056789623903 -19.45993515863156 M-18.048292152847882 -19.3399052695533 C-17.56491814204532 -19.38653577903312, -17.08154413124276 -19.433166288512943, -16.804056789623903 -19.45993515863156 M-16.804056789623903 -19.45993515863156 C-16.466002933297894 -19.470775887822022, -16.12794907697188 -19.48161661701248, -15.554687500000005 -19.5 M-16.804056789623903 -19.45993515863156 C-16.47084181548279 -19.470620714288664, -16.137626841341675 -19.48130626994577, -15.554687500000005 -19.5 M-15.554687500000005 -19.5 C-15.554687500000004 -19.5, -15.554687500000002 -19.5, -15.5546875 -19.5 M-15.554687500000005 -19.5 C-15.554687500000004 -19.5, -15.554687500000002 -19.5, -15.5546875 -19.5" stroke="#9370DB" stroke-width="1.3" fill="none" stroke-dasharray="0 0" style=""></path></g><g class="label" style="" transform="translate(-22.6796875, -12)"><rect></rect><foreignObject width="45.359375" height="44"><div xmlns="http://www.w3.org/1999/xhtml" style="display: table-cell; white-space: nowrap; line-height: 1.5; max-width: 200px; text-align: center;"><span class="nodeLabel "><p>Merge</p></span></div></foreignObject></g></g></g></g></g></g></g></svg>
